<?xml version="1.0" encoding="utf-8"?>
<!-- Generator: Adobe Illustrator 25.0.0, SVG Export Plug-In . SVG Version: 6.00 Build 0)  -->
<svg version="1.1" id="Layer_1" xmlns="http://www.w3.org/2000/svg" xmlns:xlink="http://www.w3.org/1999/xlink" x="0px" y="0px"
	 viewBox="0 0 49.7 49.7" style="enable-background:new 0 0 49.7 49.7;" xml:space="preserve">
<path d="M24.8,0C11.1,0,0,11.1,0,24.8s11.1,24.8,24.8,24.8s24.8-11.1,24.8-24.8S38.5,0,24.8,0z M31,25.7h-4c0,6.5,0,14.4,0,14.4h-6
	c0,0,0-7.9,0-14.4h-2.8v-5.1H21v-3.3c0-2.4,1.1-6,6-6l4.4,0v4.9c0,0-2.7,0-3.2,0c-0.5,0-1.3,0.3-1.3,1.4v3h4.6L31,25.7z"/>
</svg>
