<?xml version="1.0" standalone="no"?>
<!DOCTYPE svg PUBLIC "-//W3C//DTD SVG 20010904//EN"
 "http://www.w3.org/TR/2001/REC-SVG-20010904/DTD/svg10.dtd">
<svg version="1.0" xmlns="http://www.w3.org/2000/svg"
 width="50.000000pt" height="50.000000pt" viewBox="0 0 50.000000 50.000000"
 preserveAspectRatio="xMidYMid meet">

<g transform="translate(0.000000,50.000000) scale(0.100000,-0.100000)"
fill="#FFFFFF" stroke="none">
<path d="M132 492 c-53 -8 -44 -92 10 -92 15 0 38 -4 51 -9 23 -9 26 -7 32 26
10 54 -28 85 -93 75z"/>
<path d="M303 484 c-30 -15 -46 -40 -59 -96 -7 -32 9 -37 37 -12 10 9 38 19
61 21 34 4 46 11 56 31 10 21 9 30 -3 49 -18 27 -47 29 -92 7z"/>
<path d="M104 330 c-68 -34 -85 -102 -36 -147 15 -14 52 -40 82 -57 41 -23 60
-42 75 -73 11 -23 22 -42 25 -42 3 0 14 19 25 42 15 31 34 50 75 73 107 61
129 99 95 164 -20 38 -90 65 -142 55 -44 -8 -53 -8 -113 0 -35 5 -54 1 -86
-15z"/>
</g>
</svg>
